<svg id="Layer_1" enable-background="new 0 0 512 512" height="512" viewBox="0 0 512 512" width="512" xmlns="http://www.w3.org/2000/svg"><g><g><g><path clip-rule="evenodd" d="m145.207 435.456 3.886-41.303h-74.719c-21.956 0-39.884-17.944-39.884-39.857v-306.95c0-21.941 17.928-39.857 39.884-39.857h129.156 129.155c21.928 0 39.884 17.916 39.884 39.857v306.95c0 21.913-17.956 39.857-39.884 39.857h-74.747l3.886 41.303c8.652 92.074-125.269 92.074-116.617 0zm58.266-12.473c-11.063 0-20.056 8.986-20.056 20.042s8.992 20.014 20.056 20.014 20.056-8.958 20.056-20.014c-.001-11.056-8.993-20.042-20.056-20.042z" fill="#f8d2ab" fill-rule="evenodd"/></g><g><path clip-rule="evenodd" d="m372.569 307.579v-260.233c0-21.941-17.956-39.857-39.884-39.857h-37.359c21.928 0 39.884 17.916 39.884 39.857v306.95c0 21.913-17.956 39.857-39.884 39.857h37.359c19.034 0 35.062-13.522 38.976-31.409.596-2.721.908-5.556.908-8.448v-27.582z" fill="#ffbb8b" fill-rule="evenodd"/></g><g><path clip-rule="evenodd" d="m188.155 502.612c35.345 8.873 78.719-13.522 73.669-67.156l-3.886-41.303h-11.233c-7.914 0-13.872-1.417-13.134 6.265l3.291 35.038c3.601 38.411-23.376 60.806-48.707 67.156z" fill="#ffbb8b" fill-rule="evenodd"/></g><g><path clip-rule="evenodd" d="m328.345 198.78c-3.347 43.996-63.315 88.927-112.277 82.379-20.311-2.75-11.659-16.895-50.976-6.747-84.364 21.743-114.234-94.001-50.408-130.854 36.594-21.119 67.258-2.665 104.845-35.605 46.21-40.509 113.78 25.939 108.816 90.827z" fill="#db885e" fill-rule="evenodd"/></g><g><path clip-rule="evenodd" d="m328.345 198.78c4.822-63.046-58.805-127.537-104.816-94.03 38.863 3.345 77.102 53.634 73.329 103.044-.681 8.759-3.603 17.547-8.226 25.967l14.779 13.012c14.069-14.174 23.657-31.154 24.934-47.993z" fill="#c57142" fill-rule="evenodd"/></g><g><path clip-rule="evenodd" d="m457.897 387.038-54.408-47.823-29.048 32.997 34.097 30.02c1.872 1.616 2.638 2.154 3.858 4.536l9.248 18.114c2.468 4.847 4.964 9.638 9.106 13.267 11.659 10.29 29.473 9.156 39.742-2.523 10.269-11.651 9.134-29.453-2.525-39.715z" fill="#ff9a9f" fill-rule="evenodd"/></g><g><path clip-rule="evenodd" d="m404.198 333.035-140.984-124.05c-7.687-6.747-13.701-12.586-20.453-4.933-26.807 30.417 15.886 95.872 76.478 149.166l26.835 23.614c7.517 6.633 19.119 5.896 25.729-1.644l2.638-2.977 29.048-32.997 1.05-1.162c1.276-1.473 1.134-3.741-.341-5.017z" fill="#efecff" fill-rule="evenodd"/></g><g><path clip-rule="evenodd" d="m372.569 305.198-37.359-32.883-30.523-26.845-15.176-13.323-26.296-23.16c-4.482-3.912-8.397-7.541-12.198-8.391-.908-.17-1.787-.227-2.695-.085-1.844.312-3.659 1.389-5.56 3.544-3.886 4.422-6.326 9.553-7.432 15.308 3.603 1.077 7.319 4.507 11.517 8.221l38.693 34.017 49.671 43.684 37.359 32.855 15.29 13.465c1.475 1.276 1.617 3.544.312 5.018l15.318-17.406 1.05-1.162c1.277-1.474 1.135-3.742-.34-5.018z" fill="#d5cef7" fill-rule="evenodd"/></g><g><path clip-rule="evenodd" d="m457.897 387.038-54.408-47.823-15.318 17.406-1.021 1.162 54.38 47.851 10.07 8.845c8.34 7.342 11.29 18.511 8.567 28.546 3.83-1.587 7.375-4.054 10.326-7.399 10.269-11.651 9.134-29.453-2.525-39.715z" fill="#ff8086" fill-rule="evenodd"/></g></g><g><path d="m231.028 443.036c0-15.187-12.361-27.542-27.556-27.542s-27.556 12.356-27.556 27.542c0 15.187 12.361 27.542 27.556 27.542s27.556-12.355 27.556-27.542zm-40.111 0c0-6.915 5.632-12.542 12.555-12.542s12.555 5.626 12.555 12.542-5.632 12.542-12.555 12.542-12.555-5.627-12.555-12.542z"/><path d="m140.339 225.577c.522.11 1.043.163 1.556.163 3.47 0 6.587-2.422 7.331-5.953l7.631-36.172c.855-4.053-1.737-8.032-5.79-8.887-4.057-.857-8.033 1.737-8.887 5.79l-7.631 36.172c-.855 4.053 1.737 8.031 5.79 8.887z"/><path d="m196.841 225.74c3.47 0 6.587-2.423 7.331-5.953l13.276-62.932c.855-4.053-1.737-8.032-5.79-8.887-4.054-.856-8.033 1.738-8.887 5.79l-13.276 62.932c-.855 4.053 1.737 8.032 5.79 8.887.523.11 1.043.163 1.556.163z"/><path d="m484.937 414.783c-.604-9.506-4.872-18.203-12.038-24.51-2.334-2.038-4.64-4.076-6.957-6.124l-53.168-46.745c.12-.792.164-1.6.109-2.418-.196-2.971-1.539-5.675-3.732-7.57l-29.083-25.59v-95.21c0-4.142-3.358-7.5-7.5-7.5s-7.5 3.358-7.5 7.5v82.011l-49.743-43.769c12.123-14.427 19.342-30.353 20.499-45.494 1.572-20.564-3.632-42.652-14.655-62.196-10.62-18.828-25.597-33.761-42.171-42.05-22.739-11.37-46.216-8.744-64.41 7.203-19.517 17.084-36.943 19.091-55.392 21.216-4.109.473-8.357.962-12.633 1.621-4.094.629-6.903 4.459-6.273 8.553s4.462 6.901 8.553 6.273c3.995-.614 8.099-1.087 12.069-1.544 19.921-2.295 40.521-4.667 63.56-24.835 17.4-15.254 35.607-11.176 47.816-5.07 26.247 13.126 51.594 50.261 48.577 89.685-.912 11.944-6.827 24.788-16.804 36.728 0 0-41.866-36.835-44.492-38.561l8.685-41.148c.855-4.053-1.736-8.032-5.789-8.888-4.051-.856-8.032 1.737-8.888 5.79l-8.777 41.584c-2.479.843-5.107 2.478-7.666 5.38-10.243 11.622-17.782 33.822 4.021 73.655-8.396 1.66-16.467 1.994-24.082.977-5.444-.737-7.848-2.353-10.893-4.398-8.62-5.79-16.268-9.069-42.96-2.179-37.518 9.669-60.753-11.044-69.991-33.652-11.042-27.021-5.961-65.449 25.204-83.443 3.588-2.071 4.817-6.659 2.745-10.246-2.072-3.588-6.66-4.815-10.246-2.745-17.648 10.189-29.825 26.236-35.215 46.403-4.88 18.26-3.593 38.042 3.625 55.705 6.73 16.47 17.853 29.318 32.166 37.155 15.955 8.737 35.13 10.586 55.458 5.348 22.173-5.724 26.001-3.151 30.849.106 3.718 2.498 8.345 5.606 17.259 6.813 3.552.474 7.17.711 10.846.711 7.568 0 15.384-1.022 23.367-3.022 15.345 23.481 37.969 48.796 64.997 72.567l26.826 23.607c.898.793 1.855 1.493 2.837 2.144-3.574 1.338-7.384 2.052-11.263 2.052h-74.747c-2.111 0-4.125.89-5.546 2.451-1.421 1.562-2.119 3.65-1.921 5.752l3.885 41.302c2.233 23.767-5.816 42.607-22.667 53.05-16.851 10.444-39.496 10.444-56.348 0-16.85-10.443-24.901-29.284-22.668-53.049l3.886-41.303c.198-2.102-.5-4.19-1.921-5.752-1.421-1.561-3.435-2.451-5.546-2.451h-74.717c-17.856 0-32.384-14.515-32.384-32.357v-306.948c0-17.842 14.528-32.357 32.384-32.357h258.311c17.856 0 32.383 14.515 32.383 32.357v123.936c0 4.142 3.358 7.5 7.5 7.5s7.5-3.358 7.5-7.5v-123.936c0-26.113-21.256-47.358-47.384-47.358h-258.31c-26.128 0-47.385 21.245-47.385 47.358v306.95c0 26.113 21.257 47.358 47.384 47.358h66.48l-3.114 33.101c-2.754 29.305 8.072 53.8 29.7 67.204 10.789 6.687 23.432 10.03 36.076 10.03s25.287-3.343 36.076-10.03c21.628-13.405 32.453-37.9 29.699-67.205l-3.114-33.1h66.509c12.658 0 24.814-5.132 33.703-14.145 3.135-1.053 6.027-2.701 8.537-4.877l28.712 25.279.456.392c1.179 1.011 1.181 1.012 1.626 1.882l9.241 18.101c2.457 4.827 5.516 10.834 10.827 15.487 6.563 5.792 14.839 8.913 23.52 8.913.765 0 1.533-.024 2.303-.073 9.516-.603 18.223-4.876 24.509-12.027 6.291-7.14 9.423-16.308 8.818-25.815zm-118.775-44.527c-1.871 2.135-4.485 3.412-7.359 3.596-2.867.189-5.635-.75-7.776-2.638l-26.836-23.615c-30.677-26.982-55.328-55.809-69.41-81.171-10.048-18.097-19.314-42.745-6.397-57.401.578-.656.967-.943 1.149-1.057 1.583.372 146.755 128.11 146.755 128.11zm98.696 60.429c-3.644 4.144-8.686 6.619-14.197 6.968-5.504.348-10.816-1.467-14.969-5.134-3.158-2.768-5.297-6.967-7.368-11.036l-9.247-18.114c-.001-.003-.003-.006-.004-.009-1.673-3.265-3.086-4.61-5.215-6.435l-28.831-25.376 19.151-21.733 48.759 42.858 3.073 2.714c2.339 2.067 4.668 4.125 7.002 6.163 4.135 3.64 6.605 8.677 6.955 14.183.35 5.507-1.462 10.813-5.109 14.951z"/></g></g></svg>