<svg id="Layer_1" enable-background="new 0 0 512 512" height="512" viewBox="0 0 512 512" width="512" xmlns="http://www.w3.org/2000/svg"><g><g><g><path clip-rule="evenodd" d="m240.336 268.955c17.462 22.739 15.251 57.711-1.134 81.328l-58.139 18.265-47.651-18.265-54.029-38.738c-6.463-4.644-9.213-10.166-8.079-15.008v-.057l6.066-25.91c1.134-4.842 6.066-8.552 13.89-9.854l75.998-12.573c2.891-.481 5.698-.85 8.419-1.133 31.805-3.257 52.781 6.512 64.659 21.945z" fill="#db885e" fill-rule="evenodd"/></g><g><path clip-rule="evenodd" d="m272.396 375.995 195.111 25.712v17.16c0 9.43-7.71 17.132-17.15 17.132h-355.923c-9.439 0-17.15-7.702-17.15-17.132v-17.16z" fill="#a9aac9" fill-rule="evenodd"/></g><g><path clip-rule="evenodd" d="m391.68 401.708v17.16c0 1.671-.255 3.285-.709 4.842-2.098 7.079-8.702 12.29-16.47 12.29h75.856c9.439 0 17.15-7.702 17.15-17.132v-17.16h-21.43-29.367z" fill="#8080a4" fill-rule="evenodd"/></g><g><path clip-rule="evenodd" d="m431.252 285.266c33.874 9.147 43.456 33.131 43.456 65.017l-116.506 18.265-119-18.265c-26.589-27.949-6.832-61.166 1.134-81.328 19.899-22.569 62.335-42.844 153.045-24.41 13.464 13.395 6.122 32.141 37.871 40.721z" fill="#efecff" fill-rule="evenodd"/></g><g><path clip-rule="evenodd" d="m504.5 356.315v19.681c0 14.159-11.594 25.712-25.739 25.712h-11.254-21.43-262.889-105.903-11.254c-14.145 0-25.739-11.554-25.739-25.712v-19.681c0-3.313 2.721-6.032 6.038-6.032h87.082 3.317 102.474 235.506 23.755c3.315 0 6.036 2.718 6.036 6.032z" fill="#ff9a9f" fill-rule="evenodd"/></g><g><path clip-rule="evenodd" d="m393.38 244.546c-10.035 40.834-35.915 19.935-56.722 32.905-19.729 12.318-33.733-2.35-46.12-8.042-23.585-10.874-35.037-10.506-50.202-.453-32.17 2.265-59.273-8.955-64.659-21.946 5.074-10.109 14.57-20.502 44.249-20.728 23.613-.17 23.273-16.906 47.453-20.842 57.062-9.26 51.365 20.247 92.609 26.08 18.085 2.548 27.638 7.305 33.392 13.026z" fill="#ffe07d" fill-rule="evenodd"/></g><g><path clip-rule="evenodd" d="m243.567 217.163c48.983-5.465 45.638 21.606 84.956 27.128 18.085 2.577 27.638 7.306 33.421 13.054 4.252 4.248 6.435 9.033 8.447 13.876 9.751-1.727 18.199-7.136 22.989-26.675-5.754-5.72-15.307-10.477-33.393-13.026-41.245-5.833-35.547-35.34-92.609-26.08-12.018 1.953-17.971 7.05-23.811 11.723z" fill="#ffc77d" fill-rule="evenodd"/></g><g><path clip-rule="evenodd" d="m370.391 271.221c4.28 10.393 7.739 20.983 29.396 26.817 29.169 7.901 40.338 26.788 42.86 52.246h32.06c0-31.885-9.581-55.87-43.456-65.017-31.748-8.58-24.407-27.326-37.871-40.721-4.79 19.539-13.238 24.947-22.989 26.675z" fill="#d5cef7" fill-rule="evenodd"/></g><g><path clip-rule="evenodd" d="m416.71 401.708h29.367 21.43 11.254c14.145 0 25.739-11.554 25.739-25.712v-19.681c0-3.313-2.721-6.032-6.038-6.032h-23.755-32.06v22.201c0 15.744-2.466 29.224-25.937 29.224z" fill="#ff8086" fill-rule="evenodd"/></g><g><path clip-rule="evenodd" d="m77.37 270.569-3.061 12.998-3.005 12.913v.057l-32.4-7.532c-5.074 21.72-35.915 14.527-30.841-7.221 1.162-5.04 7.484-7.674 8.391-11.554.935-3.993-3.543-9.203-2.324-14.414 5.074-21.719 35.944-14.527 30.841 7.193z" fill="#efecff" fill-rule="evenodd"/></g><g><path clip-rule="evenodd" d="m215.901 293.365c3.232 19.199-.255 41.089-9.241 56.918h32.542c11.282-16.254 15.846-37.917 11.877-57.258 0 0-18.085 11.129-32.826 1.727-.765-.481-1.53-.934-2.352-1.387z" fill="#c57142" fill-rule="evenodd"/></g><g><path clip-rule="evenodd" d="m7.523 287.616c1.134 17.019 26.788 21.04 31.38 1.388l32.4 7.532v-.057l.028-.085 2.976-12.828 3.061-12.998-11.395-2.662-.624 2.662-1.871 7.986c-.539 2.35-.454 3.795-2.778 3.228l-22.082-5.239c-4.195-.963-6.038-2.294-7.342 1.048-4.052 10.394-9.976 18.691-23.753 10.025z" fill="#d5cef7" fill-rule="evenodd"/></g><g><path clip-rule="evenodd" d="m240.336 268.955c5.443 7.079 8.958 15.348 10.743 24.07 0 0-18.085 11.129-32.826 1.727-14.74-9.373-44.391-15.631-64.943-12.516-3.402.51-6.747.736-9.95.68-16.214-.396-29.311-8.439-32.315-25.486l56.212-9.288c2.891-.481 5.698-.85 8.419-1.133 31.806-3.256 52.782 6.513 64.66 21.946z" fill="#ffe07d" fill-rule="evenodd"/></g><g><path clip-rule="evenodd" d="m204.902 266.463c5.443 7.079 8.986 15.32 10.772 24.07 0 0-.085.057-.283.17.17.878.34 1.756.51 2.662.822.453 1.587.906 2.353 1.388 14.74 9.401 32.826-1.727 32.826-1.727-1.786-8.722-5.301-16.99-10.743-24.07-11.877-15.433-32.854-25.203-64.659-21.946 12.868 3.765 22.506 10.703 29.224 19.453z" fill="#ffc77d" fill-rule="evenodd"/></g></g><g><path d="m197.308 160.599c-3.234 2.609-3.756 7.367-1.168 10.626 1.481 1.865 3.661 2.835 5.86 2.835 1.643 0 3.299-.542 4.682-1.659 7.54-6.084 18.441-22.627 5.736-41.683-7.484-11.244-2.765-15.595 1.4-19.436.546-.504 1.025-.952 1.409-1.341 2.918-2.964 2.9-7.75-.04-10.691-2.94-2.942-7.689-2.925-10.606.04-.24.244-.545.52-.887.836-2.466 2.274-7.055 6.506-9.147 13.163-2.509 7.985-.687 16.684 5.42 25.858 7.825 11.741-.885 19.964-2.659 21.452z"/><path d="m275.23 130.542c-3.234 2.609-3.756 7.367-1.168 10.626 1.481 1.865 3.66 2.835 5.86 2.835 1.643 0 3.299-.542 4.682-1.659 7.536-6.081 18.441-22.625 5.762-41.717-7.492-11.239-2.762-15.583 1.412-19.416.533-.489 1.001-.924 1.378-1.304 2.93-2.95 2.932-7.737.005-10.691-2.928-2.953-7.676-2.956-10.607-.005-.239.241-.54.513-.879.824-2.472 2.27-7.073 6.497-9.175 13.154-2.523 7.991-.701 16.696 5.409 25.861 7.816 11.77-.903 20.003-2.679 21.492z"/><path d="m349.666 157.687c-3.234 2.609-3.756 7.367-1.168 10.626 1.481 1.865 3.66 2.835 5.86 2.835 1.643 0 3.299-.542 4.682-1.659 7.538-6.082 18.438-22.63 5.733-41.717-7.492-11.238-2.762-15.583 1.411-19.416.533-.49 1.001-.924 1.378-1.304 2.93-2.951 2.932-7.738.005-10.691s-7.676-2.956-10.606-.005c-.24.241-.541.514-.879.824-2.472 2.271-7.073 6.498-9.175 13.154-2.523 7.992-.7 16.696 5.414 25.867 7.833 11.77-.88 19.998-2.655 21.486z"/><path d="m284.708 295.809h-.17c-4.142 0-7.5 3.384-7.5 7.56s3.358 7.56 7.5 7.56h.17c4.142 0 7.5-3.384 7.5-7.56s-3.358-7.56-7.5-7.56z"/><path d="m336.495 303.83h-.142c-4.142 0-7.5 3.384-7.5 7.56s3.358 7.56 7.5 7.56h.142c4.142 0 7.5-3.384 7.5-7.56s-3.358-7.56-7.5-7.56z"/><path d="m391.628 327.399h.142c4.142 0 7.5-3.384 7.5-7.56s-3.358-7.56-7.5-7.56h-.142c-4.142 0-7.5 3.384-7.5 7.56s3.358 7.56 7.5 7.56z"/><path d="m315.746 256.895h.17c4.142 0 7.5-3.384 7.5-7.56s-3.358-7.56-7.5-7.56h-.17c-4.142 0-7.5 3.384-7.5 7.56s3.358 7.56 7.5 7.56z"/><path d="m266.254 244.449h.17c4.142 0 7.5-3.384 7.5-7.56s-3.358-7.56-7.5-7.56h-.17c-4.142 0-7.5 3.384-7.5 7.56s3.359 7.56 7.5 7.56z"/><path d="m498.462 343.477h-16.422c-1.156-24.521-9.106-54.463-48.828-65.276-17.147-4.671-19.971-11.627-23.88-21.255-2.3-5.665-4.907-12.086-10.659-17.854-7.86-7.878-19.818-12.725-37.628-15.255-14.975-2.135-22.82-7.64-31.127-13.468-13.196-9.259-26.841-18.833-63.734-12.797-13.448 2.206-20.719 8.078-26.562 12.796-5.782 4.67-9.961 8.043-19.74 8.114-24.724.19-40.006 6.834-48.874 21.404-1.627.216-3.272.452-4.96.733l-76.002 12.675c-7.372 1.238-13.099 4.297-16.594 8.702l-20.428-4.805c-.274-6.084-2.699-11.584-7.061-15.713-6.077-5.752-15.163-7.897-23.148-5.461-8.055 2.456-13.875 9.044-15.968 18.075-1.146 4.939.353 9.267 1.447 12.427.206.596.483 1.396.655 1.999-.409.438-.978.989-1.404 1.401-2.384 2.307-5.648 5.467-6.765 10.352-3.617 15.627 5.924 26.493 17.217 29.15 1.809.426 3.668.643 5.532.643 7.784-.001 15.638-3.784 20.049-11.944l20.392 4.779c1.192 5.525 4.985 10.831 11.063 15.235l35.066 25.344h-63.75c-7.465 0-13.538 6.119-13.538 13.639v19.838c0 18.46 14.91 33.479 33.237 33.479h3.754v9.737c0 13.691 11.058 24.829 24.649 24.829h355.909c13.591 0 24.649-11.138 24.649-24.829v-9.737h3.754c18.327 0 33.237-15.019 33.237-33.479v-19.838c0-7.521-6.073-13.64-13.538-13.64zm-432.74-55.691-25.102-5.883c-4.03-.946-8.06 1.582-9.001 5.644-1.998 8.623-8.857 7.469-10.214 7.151-1.356-.32-8.02-2.35-6.019-10.997.19-.595 1.664-2.022 2.546-2.874 2.189-2.119 4.914-4.756 5.842-8.759.934-4.02-.316-7.63-1.32-10.531-.433-1.249-1.157-3.34-1.003-4.002.866-3.734 2.838-6.17 5.704-7.043 2.903-.885 6.333-.077 8.54 2.011 2.171 2.054 2.86 5.109 1.992 8.834-.455 1.953-.121 4.009.929 5.715 1.05 1.705 2.729 2.92 4.668 3.375l25.093 5.903zm154.27-54.183c14.982-.109 22.433-6.125 29.007-11.434 5.387-4.349 10.038-8.105 19.591-9.672 30.902-5.056 40.546 1.713 52.759 10.283 8.945 6.276 19.083 13.389 37.599 16.03 11.736 1.668 20.268 4.408 25.914 8.329-5.19 16.681-13.072 17.049-25.509 17.609-8.267.371-17.638.792-26.66 6.461-10.945 6.887-18.752 3.18-30.31-3.748-2.831-1.697-5.76-3.451-8.696-4.812-22.535-10.474-36.51-11.58-51.82-3.317-9.188-9.585-24.373-19.194-48.723-20.462 5.48-2.927 13.816-5.166 26.848-5.267zm-51.497 21.934c31.956-5.328 56.225 2.359 68.328 21.644 2.311 3.682 4.123 7.72 5.449 11.987-5.113 1.953-13.291 3.817-19.982-.485-16.963-10.873-48.403-17.026-70.076-13.713-2.978.449-5.91.648-8.654.603-8.144-.201-17.95-2.636-22.738-12.085zm-84.719 50.313c-4.023-2.914-5.491-5.81-5.149-7.282l6.062-26.158c.336-1.447 2.926-3.378 7.811-4.198l13.101-2.185c5.481 15.135 19.062 24.206 37.642 24.664 3.632.066 7.394-.193 11.206-.77 17.99-2.748 45.93 2.635 59.783 11.516 5.762 3.704 11.804 4.991 17.422 4.991 4.894 0 9.461-.978 13.241-2.185.676 13.321-2.649 27.383-9.795 39.235h-99.264zm413.225 71.105c0 10.123-8.181 18.359-18.238 18.359h-265.317c-4.142 0-7.5 3.384-7.5 7.56s3.358 7.56 7.5 7.56h246.563v9.737c0 5.353-4.329 9.709-9.65 9.709h-355.908c-5.321 0-9.65-4.356-9.65-9.709v-9.737h94.007c4.142 0 7.5-3.384 7.5-7.56s-3.358-7.56-7.5-7.56h-112.759c-10.057 0-18.238-8.235-18.238-18.359v-18.358h191.354c.004 0 .009.001.013.001.006 0 .011-.001.016-.001h102.347c4.142 0 7.5-3.384 7.5-7.56s-3.358-7.56-7.5-7.56h-89.426c10.869-23.327 10.672-51.022-1.14-71.897 9.365-4.47 18.259-3.646 36.441 4.804 2.225 1.031 4.691 2.509 7.302 4.074 6.813 4.083 15.879 9.518 26.712 9.518 5.902-.001 12.331-1.614 19.202-5.939 5.679-3.569 12.339-3.869 19.389-4.186 11.781-.529 25.879-1.175 35.01-18.205.139.342.278.679.419 1.027 4.251 10.471 9.542 23.502 33.85 30.124 24.498 6.669 36.038 22.006 37.692 50.68h-94.696c-4.142 0-7.5 3.384-7.5 7.56s3.358 7.56 7.5 7.56h124.704v18.358z"/></g></g></svg>